<svg xmlns="http://www.w3.org/2000/svg" xmlns:xlink="http://www.w3.org/1999/xlink" width="40" zoomAndPan="magnify" viewBox="0 0 30 30.000001" height="40" preserveAspectRatio="xMidYMid meet" version="1.0"><defs><g/><clipPath id="a8d3dacbf1"><path d="M 2 1 L 28 1 L 28 28.214844 L 2 28.214844 Z M 2 1 " clip-rule="nonzero"/></clipPath><clipPath id="647a754c2d"><path d="M 0.484375 19 L 13 19 L 13 28.214844 L 0.484375 28.214844 Z M 0.484375 19 " clip-rule="nonzero"/></clipPath></defs><g clip-path="url(#a8d3dacbf1)"><path fill="#38b6ff" d="M 4.148438 3.53125 C 4.226562 2.257812 4.554688 1.703125 5.507812 1.257812 C 6.527344 0.777344 8.140625 1 10.035156 1.882812 C 10.851562 2.265625 10.9375 2.273438 12.367188 2.105469 C 14.269531 1.878906 16.71875 1.878906 18.476562 2.105469 C 19.804688 2.277344 19.890625 2.269531 20.710938 1.886719 C 23.402344 0.632812 25.527344 0.714844 26.296875 2.101562 C 26.679688 2.792969 26.753906 4.589844 26.453125 6.074219 C 26.289062 6.894531 26.308594 7 26.703125 7.539062 C 29.503906 11.332031 27.488281 17.480469 22.691406 19.777344 C 22.324219 19.953125 22.015625 20.0625 21.761719 20.148438 C 20.988281 20.421875 20.753906 20.503906 21.039062 21.753906 C 21.175781 22.355469 21.339844 23.851562 21.40625 25.082031 C 21.523438 27.296875 21.519531 27.316406 21.097656 27.765625 C 20.523438 28.382812 19.691406 28.394531 19.128906 27.792969 C 18.761719 27.398438 18.726562 27.214844 18.726562 25.703125 C 18.726562 23.464844 18.460938 21.980469 17.832031 20.707031 C 17.082031 19.191406 17.636719 18.625 19.351562 18.285156 C 21.730469 17.8125 23.589844 16.464844 24.625 14.453125 C 25.609375 12.539062 25.757812 9.898438 23.976562 8.289062 C 23.46875 7.734375 23.4375 7.234375 23.796875 5.722656 C 23.933594 5.15625 24.046875 4.429688 24.046875 4.101562 C 24.054688 3.585938 24.003906 3.507812 23.660156 3.507812 C 23.441406 3.507812 22.609375 3.800781 21.8125 4.15625 L 20.539062 4.722656 C 20.421875 4.777344 20.292969 4.796875 20.164062 4.78125 C 16.921875 4.441406 13.84375 4.433594 10.589844 4.785156 C 10.460938 4.796875 10.328125 4.777344 10.214844 4.726562 L 8.941406 4.15625 C 8.140625 3.800781 7.3125 3.507812 7.09375 3.507812 C 6.589844 3.507812 6.582031 3.851562 7.039062 5.878906 C 7.320312 7.121094 7.507812 7.394531 6.699219 8.386719 C 5.484375 9.871094 5.183594 11.71875 5.832031 13.65625 C 6.652344 16.097656 8.664062 17.75 11.488281 18.296875 C 13.1875 18.628906 13.632812 19.0625 12.984375 20.859375 C 12.472656 22.273438 12.148438 22.636719 11.40625 22.636719 C 10.402344 22.636719 9.777344 21.839844 10.121094 21.003906 C 10.273438 20.636719 10.230469 20.597656 9.292969 20.285156 C 6.429688 19.324219 4.242188 17.171875 3.242188 14.335938 C 2.46875 12.144531 2.808594 9.292969 4.050781 7.570312 C 4.472656 6.980469 4.476562 6.933594 4.28125 5.808594 C 4.167969 5.171875 4.109375 4.148438 4.148438 3.53125 Z M 4.148438 3.53125 " fill-opacity="1" fill-rule="nonzero"/></g><g clip-path="url(#647a754c2d)"><path fill="#38b6ff" d="M 3.148438 19.566406 C 2.734375 18.996094 1.898438 18.84375 1.28125 19.222656 C 0.664062 19.601562 0.496094 20.371094 0.910156 20.9375 C 1.210938 21.359375 1.578125 21.703125 1.886719 21.988281 C 1.941406 22.039062 2 22.089844 2.050781 22.140625 C 2.3125 22.378906 2.539062 22.585938 2.769531 22.835938 C 3.277344 23.382812 3.785156 24.121094 4.074219 25.445312 C 4.203125 26.035156 4.664062 26.355469 4.917969 26.492188 C 5.195312 26.644531 5.5 26.734375 5.746094 26.789062 C 6.257812 26.910156 6.875 26.96875 7.464844 27.007812 C 8.109375 27.046875 8.804688 27.058594 9.429688 27.0625 C 9.429688 27.746094 10.035156 28.300781 10.777344 28.300781 C 11.519531 28.300781 12.121094 27.746094 12.121094 27.0625 L 12.121094 25.824219 C 12.121094 25.140625 11.519531 24.585938 10.777344 24.585938 C 10.648438 24.585938 10.511719 24.585938 10.367188 24.585938 C 9.578125 24.589844 8.546875 24.59375 7.640625 24.539062 C 7.203125 24.511719 6.84375 24.472656 6.582031 24.425781 C 6.175781 22.960938 5.519531 21.984375 4.820312 21.230469 C 4.511719 20.898438 4.191406 20.605469 3.929688 20.367188 C 3.882812 20.324219 3.835938 20.28125 3.789062 20.238281 C 3.488281 19.960938 3.292969 19.765625 3.148438 19.566406 Z M 3.148438 19.566406 " fill-opacity="1" fill-rule="nonzero"/></g><g fill="#38b6ff" fill-opacity="1"><g transform="translate(7.479502, 18)"><g><path d="M 0.21875 -0.265625 C 0.21875 -0.367188 0.242188 -0.445312 0.296875 -0.5 C 0.359375 -0.5625 0.441406 -0.59375 0.546875 -0.59375 C 0.660156 -0.59375 0.742188 -0.5625 0.796875 -0.5 C 0.859375 -0.445312 0.890625 -0.367188 0.890625 -0.265625 C 0.890625 -0.171875 0.859375 -0.09375 0.796875 -0.03125 C 0.734375 0.0195312 0.648438 0.046875 0.546875 0.046875 C 0.441406 0.046875 0.359375 0.0195312 0.296875 -0.03125 C 0.242188 -0.09375 0.21875 -0.171875 0.21875 -0.265625 Z M 0.21875 -0.265625 "/></g></g></g></svg>