<svg xmlns="http://www.w3.org/2000/svg" xmlns:xlink="http://www.w3.org/1999/xlink" width="198" zoomAndPan="magnify" viewBox="0 0 148.5 30.000001" height="40" preserveAspectRatio="xMidYMid meet" version="1.0"><defs><g/><clipPath id="424287c21e"><path d="M 11 1 L 36 1 L 36 27.832031 L 11 27.832031 Z M 11 1 " clip-rule="nonzero"/></clipPath><clipPath id="9dbd57eb5c"><path d="M 8.75 18 L 21 18 L 21 27.832031 L 8.75 27.832031 Z M 8.75 18 " clip-rule="nonzero"/></clipPath></defs><g clip-path="url(#424287c21e)"><path fill="#38b6ff" d="M 12.328125 3.800781 C 12.402344 2.558594 12.726562 2.015625 13.652344 1.582031 C 14.648438 1.113281 16.222656 1.332031 18.070312 2.195312 C 18.867188 2.566406 18.949219 2.570312 20.34375 2.40625 C 22.199219 2.1875 24.585938 2.191406 26.300781 2.410156 C 27.59375 2.578125 27.679688 2.566406 28.476562 2.195312 C 31.101562 0.972656 33.175781 1.054688 33.925781 2.40625 C 34.300781 3.082031 34.371094 4.832031 34.078125 6.277344 C 33.917969 7.082031 33.9375 7.179688 34.324219 7.707031 C 37.054688 11.40625 35.085938 17.402344 30.410156 19.640625 C 30.050781 19.8125 29.75 19.917969 29.503906 20.003906 C 28.75 20.269531 28.519531 20.347656 28.796875 21.570312 C 28.933594 22.15625 29.09375 23.613281 29.15625 24.8125 C 29.269531 26.976562 29.269531 26.992188 28.855469 27.433594 C 28.292969 28.03125 27.484375 28.042969 26.9375 27.457031 C 26.578125 27.074219 26.546875 26.890625 26.546875 25.417969 C 26.546875 23.238281 26.285156 21.789062 25.671875 20.546875 C 24.941406 19.066406 25.484375 18.515625 27.152344 18.1875 C 29.472656 17.726562 31.285156 16.410156 32.296875 14.449219 C 33.253906 12.582031 33.398438 10.007812 31.664062 8.4375 C 31.167969 7.898438 31.136719 7.410156 31.488281 5.9375 C 31.621094 5.386719 31.730469 4.675781 31.734375 4.355469 C 31.738281 3.855469 31.6875 3.777344 31.351562 3.777344 C 31.140625 3.777344 30.332031 4.0625 29.550781 4.410156 L 28.308594 4.964844 C 28.195312 5.011719 28.070312 5.03125 27.945312 5.019531 C 24.785156 4.6875 21.785156 4.679688 18.609375 5.019531 C 18.484375 5.035156 18.355469 5.015625 18.242188 4.964844 L 17 4.410156 C 16.222656 4.0625 15.414062 3.777344 15.199219 3.777344 C 14.710938 3.777344 14.703125 4.113281 15.148438 6.089844 C 15.421875 7.300781 15.605469 7.570312 14.816406 8.535156 C 13.632812 9.984375 13.339844 11.78125 13.972656 13.671875 C 14.773438 16.054688 16.730469 17.664062 19.484375 18.199219 C 21.144531 18.523438 21.578125 18.945312 20.945312 20.695312 C 20.445312 22.074219 20.128906 22.429688 19.40625 22.429688 C 18.429688 22.429688 17.816406 21.652344 18.152344 20.839844 C 18.300781 20.480469 18.257812 20.441406 17.34375 20.132812 C 14.554688 19.199219 12.421875 17.101562 11.445312 14.335938 C 10.691406 12.199219 11.023438 9.417969 12.230469 7.738281 C 12.644531 7.164062 12.652344 7.117188 12.457031 6.019531 C 12.351562 5.398438 12.289062 4.402344 12.328125 3.800781 Z M 12.328125 3.800781 " fill-opacity="1" fill-rule="nonzero"/></g><g clip-path="url(#9dbd57eb5c)"><path fill="#38b6ff" d="M 11.351562 19.433594 C 10.953125 18.878906 10.136719 18.730469 9.535156 19.101562 C 8.929688 19.46875 8.769531 20.21875 9.167969 20.773438 C 9.464844 21.183594 9.820312 21.519531 10.121094 21.796875 C 10.179688 21.847656 10.234375 21.898438 10.285156 21.945312 C 10.539062 22.175781 10.761719 22.378906 10.984375 22.621094 C 11.480469 23.15625 11.972656 23.878906 12.253906 25.167969 C 12.378906 25.746094 12.832031 26.054688 13.078125 26.191406 C 13.351562 26.335938 13.644531 26.421875 13.886719 26.480469 C 14.386719 26.59375 14.988281 26.65625 15.5625 26.691406 C 16.191406 26.726562 16.871094 26.742188 17.480469 26.746094 C 17.480469 27.410156 18.066406 27.949219 18.792969 27.949219 C 19.515625 27.949219 20.105469 27.410156 20.105469 26.742188 L 20.105469 25.535156 C 20.105469 24.871094 19.515625 24.332031 18.792969 24.332031 C 18.667969 24.332031 18.535156 24.332031 18.394531 24.332031 C 17.621094 24.332031 16.617188 24.335938 15.734375 24.28125 C 15.308594 24.257812 14.957031 24.21875 14.699219 24.175781 C 14.304688 22.746094 13.664062 21.792969 12.984375 21.058594 C 12.679688 20.734375 12.371094 20.449219 12.117188 20.214844 C 12.066406 20.171875 12.023438 20.132812 11.980469 20.089844 C 11.6875 19.820312 11.496094 19.628906 11.351562 19.433594 Z M 11.351562 19.433594 " fill-opacity="1" fill-rule="nonzero"/></g><g fill="#a6a6a6" fill-opacity="1"><g transform="translate(102.636398, 25.549167)"><g><path d="M 1.046875 -2.421875 L 1.046875 -0.625 C 1.046875 -0.625 1.078125 -0.613281 1.140625 -0.59375 C 1.210938 -0.582031 1.296875 -0.570312 1.390625 -0.5625 C 1.484375 -0.550781 1.570312 -0.546875 1.65625 -0.546875 C 1.84375 -0.546875 1.984375 -0.578125 2.078125 -0.640625 C 2.179688 -0.703125 2.253906 -0.78125 2.296875 -0.875 C 2.347656 -0.976562 2.378906 -1.085938 2.390625 -1.203125 C 2.398438 -1.328125 2.40625 -1.445312 2.40625 -1.5625 C 2.40625 -1.71875 2.390625 -1.867188 2.359375 -2.015625 C 2.335938 -2.160156 2.269531 -2.28125 2.15625 -2.375 C 2.050781 -2.476562 1.882812 -2.53125 1.65625 -2.53125 C 1.582031 -2.53125 1.5 -2.519531 1.40625 -2.5 C 1.3125 -2.476562 1.226562 -2.457031 1.15625 -2.4375 C 1.082031 -2.425781 1.046875 -2.421875 1.046875 -2.421875 Z M 0.4375 -0.203125 L 0.4375 -3.859375 C 0.4375 -3.890625 0.445312 -3.914062 0.46875 -3.9375 C 0.5 -3.957031 0.523438 -3.96875 0.546875 -3.96875 L 0.9375 -3.96875 C 0.957031 -3.96875 0.976562 -3.957031 1 -3.9375 C 1.03125 -3.914062 1.046875 -3.890625 1.046875 -3.859375 L 1.046875 -2.953125 C 1.273438 -3.035156 1.460938 -3.082031 1.609375 -3.09375 C 1.753906 -3.101562 1.859375 -3.109375 1.921875 -3.109375 C 2.046875 -3.109375 2.171875 -3.082031 2.296875 -3.03125 C 2.421875 -2.976562 2.539062 -2.890625 2.65625 -2.765625 C 2.769531 -2.648438 2.859375 -2.492188 2.921875 -2.296875 C 2.992188 -2.109375 3.03125 -1.875 3.03125 -1.59375 C 3.03125 -1.269531 2.992188 -1 2.921875 -0.78125 C 2.859375 -0.570312 2.765625 -0.40625 2.640625 -0.28125 C 2.523438 -0.164062 2.390625 -0.0820312 2.234375 -0.03125 C 2.085938 0.0078125 1.925781 0.03125 1.75 0.03125 C 1.601562 0.03125 1.453125 0.0195312 1.296875 0 C 1.148438 -0.0078125 1.007812 -0.0234375 0.875 -0.046875 C 0.75 -0.078125 0.644531 -0.101562 0.5625 -0.125 C 0.476562 -0.15625 0.4375 -0.179688 0.4375 -0.203125 Z M 0.4375 -0.203125 "/></g></g></g><g fill="#a6a6a6" fill-opacity="1"><g transform="translate(105.94573, 25.549167)"><g><path d="M 0.15625 0.96875 C 0.132812 0.96875 0.117188 0.957031 0.109375 0.9375 C 0.0976562 0.914062 0.09375 0.882812 0.09375 0.84375 L 0.15625 0.46875 C 0.164062 0.445312 0.175781 0.429688 0.1875 0.421875 C 0.207031 0.421875 0.226562 0.421875 0.25 0.421875 C 0.269531 0.421875 0.289062 0.421875 0.3125 0.421875 C 0.34375 0.429688 0.382812 0.4375 0.4375 0.4375 C 0.675781 0.4375 0.847656 0.410156 0.953125 0.359375 C 1.066406 0.316406 1.140625 0.253906 1.171875 0.171875 C 1.203125 0.0859375 1.21875 -0.0078125 1.21875 -0.125 L 0.234375 -2.953125 C 0.234375 -2.992188 0.242188 -3.023438 0.265625 -3.046875 C 0.296875 -3.066406 0.320312 -3.078125 0.34375 -3.078125 L 0.734375 -3.078125 C 0.785156 -3.078125 0.828125 -3.035156 0.859375 -2.953125 L 1.59375 -0.8125 L 2.296875 -2.953125 C 2.328125 -3.035156 2.375 -3.078125 2.4375 -3.078125 L 2.828125 -3.078125 C 2.847656 -3.078125 2.867188 -3.066406 2.890625 -3.046875 C 2.921875 -3.023438 2.9375 -2.992188 2.9375 -2.953125 L 1.9375 -0.015625 C 1.851562 0.242188 1.753906 0.441406 1.640625 0.578125 C 1.535156 0.722656 1.421875 0.828125 1.296875 0.890625 C 1.171875 0.953125 1.046875 0.988281 0.921875 1 C 0.796875 1.007812 0.675781 1.015625 0.5625 1.015625 C 0.382812 1.015625 0.25 1 0.15625 0.96875 Z M 0.15625 0.96875 "/></g></g></g><g fill="#a6a6a6" fill-opacity="1"><g transform="translate(109.066337, 25.549167)"><g/></g></g><g fill="#a6a6a6" fill-opacity="1"><g transform="translate(110.318355, 25.549167)"><g><path d="M 1.96875 -2.5 C 1.925781 -2.5 1.875 -2.503906 1.8125 -2.515625 C 1.75 -2.523438 1.695312 -2.53125 1.65625 -2.53125 C 1.476562 -2.53125 1.347656 -2.519531 1.265625 -2.5 C 1.179688 -2.476562 1.125 -2.457031 1.09375 -2.4375 C 1.0625 -2.414062 1.046875 -2.40625 1.046875 -2.40625 L 1.046875 -0.109375 C 1.046875 -0.078125 1.03125 -0.0507812 1 -0.03125 C 0.976562 -0.0078125 0.957031 0 0.9375 0 L 0.546875 0 C 0.523438 0 0.5 -0.0078125 0.46875 -0.03125 C 0.445312 -0.0507812 0.4375 -0.078125 0.4375 -0.109375 L 0.4375 -2.859375 C 0.4375 -2.890625 0.488281 -2.921875 0.59375 -2.953125 C 0.695312 -2.992188 0.828125 -3.03125 0.984375 -3.0625 C 1.148438 -3.09375 1.328125 -3.109375 1.515625 -3.109375 C 1.546875 -3.109375 1.609375 -3.101562 1.703125 -3.09375 C 1.804688 -3.09375 1.894531 -3.082031 1.96875 -3.0625 C 2.019531 -3.050781 2.046875 -3.019531 2.046875 -2.96875 L 2.046875 -2.578125 C 2.046875 -2.523438 2.019531 -2.5 1.96875 -2.5 Z M 1.96875 -2.5 "/></g></g></g><g fill="#a6a6a6" fill-opacity="1"><g transform="translate(112.558129, 25.549167)"><g><path d="M 0.984375 -1.796875 L 2.3125 -1.796875 C 2.3125 -1.972656 2.285156 -2.109375 2.234375 -2.203125 C 2.191406 -2.304688 2.128906 -2.378906 2.046875 -2.421875 C 1.972656 -2.460938 1.898438 -2.488281 1.828125 -2.5 C 1.753906 -2.519531 1.695312 -2.53125 1.65625 -2.53125 C 1.613281 -2.53125 1.550781 -2.519531 1.46875 -2.5 C 1.394531 -2.488281 1.320312 -2.460938 1.25 -2.421875 C 1.175781 -2.378906 1.113281 -2.304688 1.0625 -2.203125 C 1.007812 -2.109375 0.984375 -1.972656 0.984375 -1.796875 Z M 2.53125 -0.59375 C 2.570312 -0.59375 2.597656 -0.570312 2.609375 -0.53125 L 2.671875 -0.109375 C 2.671875 -0.0976562 2.664062 -0.0820312 2.65625 -0.0625 C 2.65625 -0.0390625 2.644531 -0.03125 2.625 -0.03125 C 2.5 0 2.363281 0.0195312 2.21875 0.03125 C 2.070312 0.0390625 1.925781 0.046875 1.78125 0.046875 C 1.519531 0.046875 1.28125 0.00390625 1.0625 -0.078125 C 0.851562 -0.171875 0.6875 -0.320312 0.5625 -0.53125 C 0.4375 -0.738281 0.375 -1.015625 0.375 -1.359375 L 0.375 -1.8125 C 0.375 -1.875 0.378906 -1.957031 0.390625 -2.0625 C 0.410156 -2.175781 0.441406 -2.289062 0.484375 -2.40625 C 0.523438 -2.53125 0.585938 -2.644531 0.671875 -2.75 C 0.765625 -2.851562 0.890625 -2.9375 1.046875 -3 C 1.203125 -3.070312 1.394531 -3.109375 1.625 -3.109375 C 1.863281 -3.109375 2.0625 -3.070312 2.21875 -3 C 2.382812 -2.9375 2.515625 -2.847656 2.609375 -2.734375 C 2.703125 -2.617188 2.769531 -2.5 2.8125 -2.375 C 2.863281 -2.257812 2.894531 -2.144531 2.90625 -2.03125 C 2.914062 -1.925781 2.921875 -1.835938 2.921875 -1.765625 L 2.921875 -1.359375 C 2.921875 -1.316406 2.910156 -1.285156 2.890625 -1.265625 C 2.867188 -1.253906 2.84375 -1.25 2.8125 -1.25 L 1 -1.25 L 1 -1.203125 C 1.007812 -1.003906 1.054688 -0.859375 1.140625 -0.765625 C 1.222656 -0.671875 1.335938 -0.609375 1.484375 -0.578125 C 1.628906 -0.554688 1.8125 -0.546875 2.03125 -0.546875 C 2.101562 -0.546875 2.175781 -0.550781 2.25 -0.5625 C 2.332031 -0.570312 2.425781 -0.582031 2.53125 -0.59375 Z M 2.53125 -0.59375 "/></g></g></g><g fill="#a6a6a6" fill-opacity="1"><g transform="translate(115.86119, 25.549167)"><g><path d="M 1.015625 -0.578125 L 2.390625 -0.578125 C 2.429688 -0.578125 2.457031 -0.566406 2.46875 -0.546875 C 2.488281 -0.523438 2.5 -0.5 2.5 -0.46875 L 2.5 -0.109375 C 2.5 -0.0859375 2.488281 -0.0625 2.46875 -0.03125 C 2.457031 -0.0078125 2.429688 0 2.390625 0 L 0.421875 0 C 0.390625 0 0.363281 -0.0078125 0.34375 -0.03125 C 0.320312 -0.0625 0.3125 -0.0859375 0.3125 -0.109375 L 0.3125 -0.625 C 0.3125 -0.664062 0.328125 -0.703125 0.359375 -0.734375 L 1.8125 -2.484375 L 0.421875 -2.484375 C 0.390625 -2.484375 0.363281 -2.492188 0.34375 -2.515625 C 0.320312 -2.546875 0.3125 -2.570312 0.3125 -2.59375 L 0.3125 -2.953125 C 0.3125 -2.984375 0.320312 -3.007812 0.34375 -3.03125 C 0.363281 -3.0625 0.390625 -3.078125 0.421875 -3.078125 L 2.390625 -3.078125 C 2.429688 -3.078125 2.457031 -3.0625 2.46875 -3.03125 C 2.488281 -3.007812 2.5 -2.984375 2.5 -2.953125 L 2.5 -2.40625 C 2.5 -2.375 2.488281 -2.34375 2.46875 -2.3125 Z M 1.015625 -0.578125 "/></g></g></g><g fill="#a6a6a6" fill-opacity="1"><g transform="translate(118.679803, 25.549167)"><g><path d="M 2.109375 -0.765625 L 2.109375 -1.28125 L 1.609375 -1.28125 C 1.515625 -1.28125 1.414062 -1.269531 1.3125 -1.25 C 1.21875 -1.238281 1.132812 -1.203125 1.0625 -1.140625 C 0.988281 -1.085938 0.953125 -1 0.953125 -0.875 C 0.953125 -0.707031 1.007812 -0.601562 1.125 -0.5625 C 1.238281 -0.519531 1.378906 -0.5 1.546875 -0.5 C 1.628906 -0.5 1.710938 -0.503906 1.796875 -0.515625 C 1.890625 -0.535156 1.960938 -0.566406 2.015625 -0.609375 C 2.078125 -0.648438 2.109375 -0.703125 2.109375 -0.765625 Z M 0.71875 -2.453125 C 0.675781 -2.453125 0.648438 -2.472656 0.640625 -2.515625 L 0.5625 -2.921875 C 0.5625 -2.960938 0.582031 -2.992188 0.625 -3.015625 C 0.769531 -3.046875 0.910156 -3.066406 1.046875 -3.078125 C 1.191406 -3.097656 1.332031 -3.109375 1.46875 -3.109375 C 1.851562 -3.109375 2.15625 -3.007812 2.375 -2.8125 C 2.601562 -2.613281 2.71875 -2.316406 2.71875 -1.921875 L 2.71875 -0.3125 C 2.71875 -0.257812 2.671875 -0.210938 2.578125 -0.171875 C 2.492188 -0.128906 2.382812 -0.09375 2.25 -0.0625 C 2.113281 -0.03125 1.976562 -0.0078125 1.84375 0 C 1.71875 0.0195312 1.617188 0.03125 1.546875 0.03125 C 1.335938 0.03125 1.140625 0.0078125 0.953125 -0.03125 C 0.773438 -0.0820312 0.628906 -0.175781 0.515625 -0.3125 C 0.398438 -0.445312 0.34375 -0.640625 0.34375 -0.890625 C 0.34375 -1.148438 0.390625 -1.347656 0.484375 -1.484375 C 0.585938 -1.617188 0.71875 -1.707031 0.875 -1.75 C 1.03125 -1.800781 1.203125 -1.828125 1.390625 -1.828125 L 2.109375 -1.828125 L 2.109375 -1.875 C 2.109375 -2.113281 2.035156 -2.28125 1.890625 -2.375 C 1.753906 -2.476562 1.5625 -2.53125 1.3125 -2.53125 C 1.21875 -2.53125 1.117188 -2.519531 1.015625 -2.5 C 0.921875 -2.488281 0.820312 -2.472656 0.71875 -2.453125 Z M 0.71875 -2.453125 "/></g></g></g><g fill="#a6a6a6" fill-opacity="1"><g transform="translate(121.812993, 25.549167)"><g><path d="M 2.328125 -0.625 L 2.328125 -2.421875 C 2.328125 -2.421875 2.289062 -2.425781 2.21875 -2.4375 C 2.144531 -2.457031 2.0625 -2.476562 1.96875 -2.5 C 1.875 -2.519531 1.789062 -2.53125 1.71875 -2.53125 C 1.488281 -2.53125 1.320312 -2.476562 1.21875 -2.375 C 1.113281 -2.28125 1.046875 -2.160156 1.015625 -2.015625 C 0.984375 -1.867188 0.96875 -1.71875 0.96875 -1.5625 C 0.96875 -1.445312 0.972656 -1.328125 0.984375 -1.203125 C 0.992188 -1.085938 1.019531 -0.976562 1.0625 -0.875 C 1.113281 -0.78125 1.1875 -0.703125 1.28125 -0.640625 C 1.382812 -0.578125 1.53125 -0.546875 1.71875 -0.546875 C 1.800781 -0.546875 1.890625 -0.550781 1.984375 -0.5625 C 2.078125 -0.570312 2.15625 -0.582031 2.21875 -0.59375 C 2.289062 -0.613281 2.328125 -0.625 2.328125 -0.625 Z M 2.9375 -3.859375 L 2.9375 -0.203125 C 2.9375 -0.179688 2.894531 -0.15625 2.8125 -0.125 C 2.726562 -0.101562 2.617188 -0.078125 2.484375 -0.046875 C 2.359375 -0.0234375 2.21875 -0.0078125 2.0625 0 C 1.914062 0.0195312 1.769531 0.03125 1.625 0.03125 C 1.445312 0.03125 1.28125 0.0078125 1.125 -0.03125 C 0.976562 -0.0820312 0.84375 -0.164062 0.71875 -0.28125 C 0.601562 -0.40625 0.507812 -0.570312 0.4375 -0.78125 C 0.375 -1 0.34375 -1.269531 0.34375 -1.59375 C 0.34375 -1.875 0.375 -2.109375 0.4375 -2.296875 C 0.507812 -2.492188 0.601562 -2.648438 0.71875 -2.765625 C 0.832031 -2.890625 0.953125 -2.976562 1.078125 -3.03125 C 1.203125 -3.082031 1.328125 -3.109375 1.453125 -3.109375 C 1.523438 -3.109375 1.632812 -3.101562 1.78125 -3.09375 C 1.925781 -3.082031 2.109375 -3.035156 2.328125 -2.953125 L 2.328125 -3.859375 C 2.328125 -3.890625 2.335938 -3.914062 2.359375 -3.9375 C 2.390625 -3.957031 2.414062 -3.96875 2.4375 -3.96875 L 2.828125 -3.96875 C 2.847656 -3.96875 2.867188 -3.957031 2.890625 -3.9375 C 2.921875 -3.914062 2.9375 -3.890625 2.9375 -3.859375 Z M 2.9375 -3.859375 "/></g></g></g><g fill="#a6a6a6" fill-opacity="1"><g transform="translate(125.185262, 25.549167)"><g><path d="M 0.984375 -1.796875 L 2.3125 -1.796875 C 2.3125 -1.972656 2.285156 -2.109375 2.234375 -2.203125 C 2.191406 -2.304688 2.128906 -2.378906 2.046875 -2.421875 C 1.972656 -2.460938 1.898438 -2.488281 1.828125 -2.5 C 1.753906 -2.519531 1.695312 -2.53125 1.65625 -2.53125 C 1.613281 -2.53125 1.550781 -2.519531 1.46875 -2.5 C 1.394531 -2.488281 1.320312 -2.460938 1.25 -2.421875 C 1.175781 -2.378906 1.113281 -2.304688 1.0625 -2.203125 C 1.007812 -2.109375 0.984375 -1.972656 0.984375 -1.796875 Z M 2.53125 -0.59375 C 2.570312 -0.59375 2.597656 -0.570312 2.609375 -0.53125 L 2.671875 -0.109375 C 2.671875 -0.0976562 2.664062 -0.0820312 2.65625 -0.0625 C 2.65625 -0.0390625 2.644531 -0.03125 2.625 -0.03125 C 2.5 0 2.363281 0.0195312 2.21875 0.03125 C 2.070312 0.0390625 1.925781 0.046875 1.78125 0.046875 C 1.519531 0.046875 1.28125 0.00390625 1.0625 -0.078125 C 0.851562 -0.171875 0.6875 -0.320312 0.5625 -0.53125 C 0.4375 -0.738281 0.375 -1.015625 0.375 -1.359375 L 0.375 -1.8125 C 0.375 -1.875 0.378906 -1.957031 0.390625 -2.0625 C 0.410156 -2.175781 0.441406 -2.289062 0.484375 -2.40625 C 0.523438 -2.53125 0.585938 -2.644531 0.671875 -2.75 C 0.765625 -2.851562 0.890625 -2.9375 1.046875 -3 C 1.203125 -3.070312 1.394531 -3.109375 1.625 -3.109375 C 1.863281 -3.109375 2.0625 -3.070312 2.21875 -3 C 2.382812 -2.9375 2.515625 -2.847656 2.609375 -2.734375 C 2.703125 -2.617188 2.769531 -2.5 2.8125 -2.375 C 2.863281 -2.257812 2.894531 -2.144531 2.90625 -2.03125 C 2.914062 -1.925781 2.921875 -1.835938 2.921875 -1.765625 L 2.921875 -1.359375 C 2.921875 -1.316406 2.910156 -1.285156 2.890625 -1.265625 C 2.867188 -1.253906 2.84375 -1.25 2.8125 -1.25 L 1 -1.25 L 1 -1.203125 C 1.007812 -1.003906 1.054688 -0.859375 1.140625 -0.765625 C 1.222656 -0.671875 1.335938 -0.609375 1.484375 -0.578125 C 1.628906 -0.554688 1.8125 -0.546875 2.03125 -0.546875 C 2.101562 -0.546875 2.175781 -0.550781 2.25 -0.5625 C 2.332031 -0.570312 2.425781 -0.582031 2.53125 -0.59375 Z M 2.53125 -0.59375 "/></g></g></g><g fill="#a6a6a6" fill-opacity="1"><g transform="translate(128.425387, 25.549167)"><g><path d="M 1.84375 0 L 1.25 0 C 1.195312 0 1.160156 -0.03125 1.140625 -0.09375 L 0.1875 -2.953125 C 0.1875 -2.992188 0.195312 -3.023438 0.21875 -3.046875 C 0.25 -3.066406 0.273438 -3.078125 0.296875 -3.078125 L 0.6875 -3.078125 C 0.75 -3.078125 0.789062 -3.035156 0.8125 -2.953125 L 1.546875 -0.6875 L 2.28125 -2.953125 C 2.3125 -3.035156 2.351562 -3.078125 2.40625 -3.078125 L 2.796875 -3.078125 C 2.816406 -3.078125 2.835938 -3.066406 2.859375 -3.046875 C 2.890625 -3.023438 2.90625 -2.992188 2.90625 -2.953125 L 1.96875 -0.09375 C 1.945312 -0.03125 1.90625 0 1.84375 0 Z M 1.84375 0 "/></g></g></g><g fill="#a6a6a6" fill-opacity="1"><g transform="translate(131.520829, 25.549167)"><g><path d="M 1.75 -4 C 2.03125 -4 2.253906 -3.957031 2.421875 -3.875 C 2.597656 -3.789062 2.734375 -3.6875 2.828125 -3.5625 C 2.929688 -3.4375 3.003906 -3.300781 3.046875 -3.15625 C 3.085938 -3.019531 3.113281 -2.894531 3.125 -2.78125 C 3.132812 -2.664062 3.140625 -2.582031 3.140625 -2.53125 L 3.140625 -1.390625 C 3.140625 -1.335938 3.132812 -1.253906 3.125 -1.140625 C 3.113281 -1.035156 3.085938 -0.914062 3.046875 -0.78125 C 3.003906 -0.644531 2.929688 -0.515625 2.828125 -0.390625 C 2.734375 -0.265625 2.597656 -0.160156 2.421875 -0.078125 C 2.253906 -0.00390625 2.03125 0.03125 1.75 0.03125 C 1.476562 0.03125 1.253906 -0.00390625 1.078125 -0.078125 C 0.910156 -0.160156 0.773438 -0.265625 0.671875 -0.390625 C 0.578125 -0.515625 0.507812 -0.644531 0.46875 -0.78125 C 0.425781 -0.914062 0.398438 -1.035156 0.390625 -1.140625 C 0.378906 -1.253906 0.375 -1.335938 0.375 -1.390625 L 0.375 -2.53125 C 0.375 -2.582031 0.378906 -2.664062 0.390625 -2.78125 C 0.398438 -2.894531 0.425781 -3.019531 0.46875 -3.15625 C 0.507812 -3.300781 0.578125 -3.4375 0.671875 -3.5625 C 0.773438 -3.6875 0.910156 -3.789062 1.078125 -3.875 C 1.253906 -3.957031 1.476562 -4 1.75 -4 Z M 1.75 -0.546875 C 1.8125 -0.546875 1.882812 -0.554688 1.96875 -0.578125 C 2.0625 -0.597656 2.148438 -0.632812 2.234375 -0.6875 C 2.316406 -0.75 2.382812 -0.835938 2.4375 -0.953125 C 2.5 -1.078125 2.53125 -1.238281 2.53125 -1.4375 L 2.53125 -2.53125 C 2.53125 -2.726562 2.5 -2.882812 2.4375 -3 C 2.382812 -3.125 2.316406 -3.210938 2.234375 -3.265625 C 2.148438 -3.328125 2.0625 -3.367188 1.96875 -3.390625 C 1.882812 -3.410156 1.8125 -3.421875 1.75 -3.421875 C 1.6875 -3.421875 1.609375 -3.410156 1.515625 -3.390625 C 1.429688 -3.367188 1.347656 -3.328125 1.265625 -3.265625 C 1.191406 -3.210938 1.125 -3.125 1.0625 -3 C 1.007812 -2.882812 0.984375 -2.726562 0.984375 -2.53125 L 0.984375 -1.4375 C 0.984375 -1.238281 1.007812 -1.078125 1.0625 -0.953125 C 1.125 -0.835938 1.191406 -0.75 1.265625 -0.6875 C 1.347656 -0.632812 1.429688 -0.597656 1.515625 -0.578125 C 1.609375 -0.554688 1.6875 -0.546875 1.75 -0.546875 Z M 1.75 -0.546875 "/></g></g></g><g fill="#a6a6a6" fill-opacity="1"><g transform="translate(135.031512, 25.549167)"><g><path d="M 0.4375 -1.078125 L 0.4375 -1.125 C 0.4375 -1.164062 0.445312 -1.191406 0.46875 -1.203125 C 0.5 -1.222656 0.523438 -1.234375 0.546875 -1.234375 L 0.9375 -1.234375 C 0.957031 -1.234375 0.976562 -1.222656 1 -1.203125 C 1.03125 -1.191406 1.046875 -1.164062 1.046875 -1.125 L 1.046875 -1.09375 C 1.046875 -0.9375 1.078125 -0.816406 1.140625 -0.734375 C 1.210938 -0.660156 1.296875 -0.609375 1.390625 -0.578125 C 1.492188 -0.554688 1.59375 -0.546875 1.6875 -0.546875 C 1.800781 -0.546875 1.910156 -0.566406 2.015625 -0.609375 C 2.117188 -0.648438 2.203125 -0.710938 2.265625 -0.796875 C 2.328125 -0.890625 2.359375 -1.015625 2.359375 -1.171875 L 2.359375 -1.21875 C 2.359375 -1.34375 2.332031 -1.460938 2.28125 -1.578125 C 2.238281 -1.691406 2.15625 -1.785156 2.03125 -1.859375 C 1.914062 -1.941406 1.75 -1.984375 1.53125 -1.984375 C 1.4375 -1.984375 1.347656 -1.972656 1.265625 -1.953125 C 1.179688 -1.929688 1.070312 -1.890625 0.9375 -1.828125 C 0.90625 -1.816406 0.882812 -1.8125 0.875 -1.8125 L 0.53125 -1.859375 C 0.507812 -1.859375 0.492188 -1.863281 0.484375 -1.875 C 0.472656 -1.894531 0.46875 -1.921875 0.46875 -1.953125 L 0.46875 -3.859375 C 0.46875 -3.878906 0.472656 -3.898438 0.484375 -3.921875 C 0.503906 -3.953125 0.535156 -3.96875 0.578125 -3.96875 L 2.453125 -3.96875 C 2.484375 -3.96875 2.507812 -3.953125 2.53125 -3.921875 C 2.550781 -3.898438 2.5625 -3.878906 2.5625 -3.859375 L 2.5625 -3.46875 C 2.5625 -3.445312 2.550781 -3.421875 2.53125 -3.390625 C 2.507812 -3.367188 2.484375 -3.359375 2.453125 -3.359375 L 1.078125 -3.359375 L 1.078125 -2.4375 C 1.234375 -2.5 1.367188 -2.535156 1.484375 -2.546875 C 1.597656 -2.554688 1.691406 -2.5625 1.765625 -2.5625 C 1.890625 -2.5625 2.019531 -2.539062 2.15625 -2.5 C 2.300781 -2.46875 2.429688 -2.398438 2.546875 -2.296875 C 2.671875 -2.191406 2.769531 -2.046875 2.84375 -1.859375 C 2.925781 -1.671875 2.96875 -1.429688 2.96875 -1.140625 C 2.96875 -0.867188 2.90625 -0.644531 2.78125 -0.46875 C 2.664062 -0.289062 2.507812 -0.160156 2.3125 -0.078125 C 2.125 -0.00390625 1.914062 0.03125 1.6875 0.03125 C 1.476562 0.03125 1.273438 -0.00390625 1.078125 -0.078125 C 0.890625 -0.148438 0.734375 -0.269531 0.609375 -0.4375 C 0.492188 -0.601562 0.4375 -0.816406 0.4375 -1.078125 Z M 0.4375 -1.078125 "/></g></g></g><g fill="#a6a6a6" fill-opacity="1"><g transform="translate(39.946386, 14.905889)"><g><path d="M 5.9375 -13.71875 C 6.664062 -13.71875 7.378906 -13.609375 8.078125 -13.390625 C 8.773438 -13.179688 9.296875 -12.972656 9.640625 -12.765625 L 10.125 -12.4375 L 8.875 -10 C 8.78125 -10.0625 8.644531 -10.144531 8.46875 -10.25 C 8.300781 -10.351562 7.976562 -10.488281 7.5 -10.65625 C 7.019531 -10.832031 6.570312 -10.921875 6.15625 -10.921875 C 5.644531 -10.921875 5.25 -10.8125 4.96875 -10.59375 C 4.695312 -10.375 4.5625 -10.082031 4.5625 -9.71875 C 4.5625 -9.53125 4.625 -9.359375 4.75 -9.203125 C 4.882812 -9.046875 5.109375 -8.875 5.421875 -8.6875 C 5.734375 -8.507812 6.007812 -8.363281 6.25 -8.25 C 6.488281 -8.144531 6.859375 -7.984375 7.359375 -7.765625 C 8.234375 -7.398438 8.976562 -6.898438 9.59375 -6.265625 C 10.207031 -5.628906 10.515625 -4.90625 10.515625 -4.09375 C 10.515625 -3.320312 10.375 -2.644531 10.09375 -2.0625 C 9.820312 -1.488281 9.441406 -1.039062 8.953125 -0.71875 C 8.472656 -0.394531 7.9375 -0.15625 7.34375 0 C 6.757812 0.164062 6.125 0.25 5.4375 0.25 C 4.851562 0.25 4.273438 0.1875 3.703125 0.0625 C 3.140625 -0.0507812 2.664062 -0.195312 2.28125 -0.375 C 1.90625 -0.5625 1.5625 -0.738281 1.25 -0.90625 C 0.945312 -1.082031 0.726562 -1.234375 0.59375 -1.359375 L 0.375 -1.53125 L 1.90625 -4.109375 C 2.039062 -4.003906 2.222656 -3.863281 2.453125 -3.6875 C 2.679688 -3.519531 3.085938 -3.296875 3.671875 -3.015625 C 4.253906 -2.734375 4.765625 -2.59375 5.203125 -2.59375 C 6.503906 -2.59375 7.15625 -3.035156 7.15625 -3.921875 C 7.15625 -4.109375 7.109375 -4.28125 7.015625 -4.4375 C 6.921875 -4.59375 6.753906 -4.75 6.515625 -4.90625 C 6.285156 -5.0625 6.082031 -5.1875 5.90625 -5.28125 C 5.726562 -5.375 5.429688 -5.515625 5.015625 -5.703125 C 4.609375 -5.898438 4.304688 -6.046875 4.109375 -6.140625 C 3.296875 -6.546875 2.664062 -7.050781 2.21875 -7.65625 C 1.769531 -8.257812 1.546875 -8.90625 1.546875 -9.59375 C 1.546875 -10.800781 1.992188 -11.789062 2.890625 -12.5625 C 3.785156 -13.332031 4.800781 -13.71875 5.9375 -13.71875 Z M 5.9375 -13.71875 "/></g></g></g><g fill="#a6a6a6" fill-opacity="1"><g transform="translate(50.914462, 14.905889)"><g><path d="M 1.46875 -8.375 L 1.46875 -11.5 L 4.359375 -11.5 L 4.359375 -8.375 L 6.125 -8.375 L 6.125 -6.171875 L 4.359375 -6.171875 L 4.359375 -3.515625 C 4.359375 -2.734375 4.578125 -2.34375 5.015625 -2.34375 C 5.117188 -2.34375 5.226562 -2.363281 5.34375 -2.40625 C 5.46875 -2.457031 5.566406 -2.503906 5.640625 -2.546875 L 5.734375 -2.609375 L 6.453125 -0.28125 C 5.828125 0.0703125 5.117188 0.25 4.328125 0.25 C 3.785156 0.25 3.316406 0.15625 2.921875 -0.03125 C 2.523438 -0.226562 2.226562 -0.488281 2.03125 -0.8125 C 1.832031 -1.132812 1.6875 -1.46875 1.59375 -1.8125 C 1.507812 -2.164062 1.46875 -2.546875 1.46875 -2.953125 L 1.46875 -6.171875 L 0.265625 -6.171875 L 0.265625 -8.375 Z M 1.46875 -8.375 "/></g></g></g><g fill="#a6a6a6" fill-opacity="1"><g transform="translate(57.361469, 14.905889)"><g><path d="M 0.984375 0 L 0.984375 -8.375 L 3.875 -8.375 L 3.875 -7.171875 L 3.90625 -7.171875 C 3.925781 -7.210938 3.957031 -7.265625 4 -7.328125 C 4.050781 -7.390625 4.160156 -7.503906 4.328125 -7.671875 C 4.492188 -7.835938 4.664062 -7.984375 4.84375 -8.109375 C 5.03125 -8.242188 5.269531 -8.363281 5.5625 -8.46875 C 5.863281 -8.570312 6.164062 -8.625 6.46875 -8.625 C 6.78125 -8.625 7.085938 -8.578125 7.390625 -8.484375 C 7.703125 -8.398438 7.925781 -8.316406 8.0625 -8.234375 L 8.296875 -8.09375 L 7.09375 -5.65625 C 6.726562 -5.957031 6.222656 -6.109375 5.578125 -6.109375 C 5.234375 -6.109375 4.9375 -6.03125 4.6875 -5.875 C 4.4375 -5.726562 4.257812 -5.546875 4.15625 -5.328125 C 4.050781 -5.109375 3.976562 -4.921875 3.9375 -4.765625 C 3.894531 -4.617188 3.875 -4.5 3.875 -4.40625 L 3.875 0 Z M 0.984375 0 "/></g></g></g><g fill="#a6a6a6" fill-opacity="1"><g transform="translate(65.391666, 14.905889)"><g><path d="M 9.453125 -3.78125 L 3.375 -3.78125 C 3.375 -3.195312 3.5625 -2.765625 3.9375 -2.484375 C 4.320312 -2.203125 4.738281 -2.0625 5.1875 -2.0625 C 5.65625 -2.0625 6.023438 -2.125 6.296875 -2.25 C 6.566406 -2.375 6.878906 -2.617188 7.234375 -2.984375 L 9.328125 -1.9375 C 8.453125 -0.476562 7.003906 0.25 4.984375 0.25 C 3.722656 0.25 2.640625 -0.179688 1.734375 -1.046875 C 0.828125 -1.910156 0.375 -2.953125 0.375 -4.171875 C 0.375 -5.398438 0.828125 -6.445312 1.734375 -7.3125 C 2.640625 -8.1875 3.722656 -8.625 4.984375 -8.625 C 6.304688 -8.625 7.382812 -8.238281 8.21875 -7.46875 C 9.050781 -6.695312 9.46875 -5.601562 9.46875 -4.1875 C 9.46875 -3.988281 9.460938 -3.851562 9.453125 -3.78125 Z M 3.46875 -5.390625 L 6.640625 -5.390625 C 6.578125 -5.828125 6.40625 -6.160156 6.125 -6.390625 C 5.851562 -6.628906 5.5 -6.75 5.0625 -6.75 C 4.582031 -6.75 4.203125 -6.625 3.921875 -6.375 C 3.640625 -6.125 3.488281 -5.796875 3.46875 -5.390625 Z M 3.46875 -5.390625 "/></g></g></g><g fill="#a6a6a6" fill-opacity="1"><g transform="translate(75.151945, 14.905889)"><g><path d="M 1.546875 -1.03125 C 0.765625 -1.882812 0.375 -2.929688 0.375 -4.171875 C 0.375 -5.421875 0.765625 -6.472656 1.546875 -7.328125 C 2.335938 -8.191406 3.335938 -8.625 4.546875 -8.625 C 5.648438 -8.625 6.5625 -8.273438 7.28125 -7.578125 L 7.28125 -8.375 L 10.171875 -8.375 L 10.171875 0 L 7.3125 0 L 7.3125 -0.953125 L 7.28125 -0.953125 C 6.5625 -0.148438 5.648438 0.25 4.546875 0.25 C 3.335938 0.25 2.335938 -0.175781 1.546875 -1.03125 Z M 4 -5.59375 C 3.625 -5.226562 3.4375 -4.753906 3.4375 -4.171875 C 3.4375 -3.597656 3.613281 -3.128906 3.96875 -2.765625 C 4.332031 -2.398438 4.8125 -2.21875 5.40625 -2.21875 C 5.96875 -2.21875 6.429688 -2.398438 6.796875 -2.765625 C 7.160156 -3.140625 7.34375 -3.613281 7.34375 -4.1875 C 7.34375 -4.757812 7.15625 -5.226562 6.78125 -5.59375 C 6.40625 -5.96875 5.945312 -6.15625 5.40625 -6.15625 C 4.851562 -6.15625 4.382812 -5.96875 4 -5.59375 Z M 4 -5.59375 "/></g></g></g><g fill="#a6a6a6" fill-opacity="1"><g transform="translate(86.299556, 14.905889)"><g><path d="M 0.984375 0 L 0.984375 -8.375 L 3.875 -8.375 L 3.875 -7.5 L 3.90625 -7.5 C 4.65625 -8.25 5.453125 -8.625 6.296875 -8.625 C 6.910156 -8.625 7.484375 -8.5 8.015625 -8.25 C 8.546875 -8 8.945312 -7.613281 9.21875 -7.09375 C 10.070312 -8.113281 11 -8.625 12 -8.625 C 12.894531 -8.625 13.660156 -8.375 14.296875 -7.875 C 14.941406 -7.375 15.265625 -6.585938 15.265625 -5.515625 L 15.265625 0 L 12.375 0 L 12.375 -4.734375 C 12.375 -5.179688 12.25 -5.550781 12 -5.84375 C 11.757812 -6.144531 11.394531 -6.296875 10.90625 -6.296875 C 10.476562 -6.296875 10.148438 -6.164062 9.921875 -5.90625 C 9.703125 -5.65625 9.582031 -5.351562 9.5625 -5 L 9.5625 0 L 6.671875 0 L 6.671875 -4.734375 C 6.671875 -5.179688 6.546875 -5.550781 6.296875 -5.84375 C 6.054688 -6.144531 5.691406 -6.296875 5.203125 -6.296875 C 4.765625 -6.296875 4.429688 -6.15625 4.203125 -5.875 C 3.984375 -5.601562 3.875 -5.273438 3.875 -4.890625 L 3.875 0 Z M 0.984375 0 "/></g></g></g><g fill="#a6a6a6" fill-opacity="1"><g transform="translate(102.376275, 14.905889)"><g><path d="M 7.828125 -13.46875 L 13.265625 0 L 9.953125 0 L 8.96875 -2.6875 L 3.84375 -2.6875 L 2.84375 0 L -0.453125 0 L 4.984375 -13.46875 Z M 7.921875 -5.390625 L 6.421875 -9.3125 L 6.390625 -9.3125 L 4.875 -5.390625 Z M 7.921875 -5.390625 "/></g></g></g><g fill="#a6a6a6" fill-opacity="1"><g transform="translate(115.172364, 14.905889)"><g><path d="M 9.59375 -7.34375 C 10.382812 -6.488281 10.78125 -5.4375 10.78125 -4.1875 C 10.78125 -2.945312 10.382812 -1.894531 9.59375 -1.03125 C 8.8125 -0.175781 7.816406 0.25 6.609375 0.25 C 5.503906 0.25 4.59375 -0.0976562 3.875 -0.796875 L 3.875 4.25 L 0.984375 4.25 L 0.984375 -8.375 L 3.84375 -8.375 L 3.84375 -7.421875 L 3.875 -7.421875 C 4.59375 -8.222656 5.503906 -8.625 6.609375 -8.625 C 7.816406 -8.625 8.8125 -8.195312 9.59375 -7.34375 Z M 7.140625 -2.765625 C 7.515625 -3.140625 7.703125 -3.613281 7.703125 -4.1875 C 7.703125 -4.769531 7.519531 -5.242188 7.15625 -5.609375 C 6.800781 -5.972656 6.332031 -6.15625 5.75 -6.15625 C 5.175781 -6.15625 4.707031 -5.96875 4.34375 -5.59375 C 3.976562 -5.226562 3.796875 -4.765625 3.796875 -4.203125 C 3.796875 -3.617188 3.984375 -3.140625 4.359375 -2.765625 C 4.742188 -2.398438 5.207031 -2.21875 5.75 -2.21875 C 6.300781 -2.21875 6.765625 -2.398438 7.140625 -2.765625 Z M 7.140625 -2.765625 "/></g></g></g><g fill="#a6a6a6" fill-opacity="1"><g transform="translate(126.319972, 14.905889)"><g><path d="M 9.59375 -7.34375 C 10.382812 -6.488281 10.78125 -5.4375 10.78125 -4.1875 C 10.78125 -2.945312 10.382812 -1.894531 9.59375 -1.03125 C 8.8125 -0.175781 7.816406 0.25 6.609375 0.25 C 5.503906 0.25 4.59375 -0.0976562 3.875 -0.796875 L 3.875 4.25 L 0.984375 4.25 L 0.984375 -8.375 L 3.84375 -8.375 L 3.84375 -7.421875 L 3.875 -7.421875 C 4.59375 -8.222656 5.503906 -8.625 6.609375 -8.625 C 7.816406 -8.625 8.8125 -8.195312 9.59375 -7.34375 Z M 7.140625 -2.765625 C 7.515625 -3.140625 7.703125 -3.613281 7.703125 -4.1875 C 7.703125 -4.769531 7.519531 -5.242188 7.15625 -5.609375 C 6.800781 -5.972656 6.332031 -6.15625 5.75 -6.15625 C 5.175781 -6.15625 4.707031 -5.96875 4.34375 -5.59375 C 3.976562 -5.226562 3.796875 -4.765625 3.796875 -4.203125 C 3.796875 -3.617188 3.984375 -3.140625 4.359375 -2.765625 C 4.742188 -2.398438 5.207031 -2.21875 5.75 -2.21875 C 6.300781 -2.21875 6.765625 -2.398438 7.140625 -2.765625 Z M 7.140625 -2.765625 "/></g></g></g></svg>